:SAMPLES-PER-SECOND 30
:FULLY-SPECIFIED
:DEGREES
318
root  51.2293 39.7823 4.50266 177.278 30.4616 175.792
RightUpLeg  2.75475 -13.4821 -12.5301
RightLeg  1.62468 -12.8391 1.80549
RightFoot  1.28174 -0.570259 5.22938
RightToes  5.82063e-011 0 -3.6325e-017
Spine  7.00511 -5.13929 0.724621
Spine1  12.1518 -6.19583 2.40182
HEad  -9.31077 36.3578 -20.1873
LeftShoulder1  1.25709 -0.152509 -28.2721
LeftArm  19.8959 -19.7437 -55.0923
LeftForeArm  5.07188 -37.2192 -8.21225
LeftHand  -0.235094 1.08642 6.27455
RightShoulder  -0.345548 -4.57121 25.3164
RightArm  1.63167 -13.6782 35.7293
RightForeArm  153.016 69.7879 151.296
RightHand  -1.8854 10.5097 -14.0685
LeftUpLeg  -8.42667 12.0636 3.05371
LeftLeg  4.47729 34.1933 -3.83549
LeftFoot  -1.73364 -0.141603 1.81734
LeftToes  2.58842e-009 -1.78069e-010 3.24654e-012
319
root  51.0479 39.7162 4.17242 177.64 26.8181 176.906
RightUpLeg  4.62366 -13.6073 -12.64
RightLeg  1.15574 -15.9505 2.3437
RightFoot  1.2266 -0.622808 5.7229
RightToes  5.82063e-011 0 -3.6325e-017
Spine  7.08701 -5.04566 1.46543
Spine1  11.8658 -5.78787 1.47308
HEad  -9.26051 37.0402 -20.2801
LeftShoulder1  1.13666 0.243956 -28.8002
LeftArm  20.5287 -14.9229 -54.0926
LeftForeArm  4.82241 -32.1647 -6.81435
LeftHand  -0.250295 1.39831 7.20591
RightShoulder  -0.307539 -4.43821 25.7112
RightArm  7.72272 -12.6334 37.5466
RightForeArm  139.468 74.9059 138.781
RightHand  -1.75414 9.69639 -13.7711
LeftUpLeg  -6.92823 11.9439 3.89734
LeftLeg  0.120749 45.7398 -6.57325
LeftFoot  -1.72298 -0.271028 3.34298
LeftToes  2.58842e-009 -1.78069e-010 3.24654e-012
320
root  50.8044 39.5796 3.77722 177.751 23.44 178.113
RightUpLeg  6.3501 -14.0086 -12.9009
RightLeg  1.66275 -18.5268 2.93207
RightFoot  0.418977 -0.691349 6.7623
RightToes  5.82063e-011 0 -3.6325e-017
Spine  7.33127 -4.49052 1.76619
Spine1  11.6687 -5.1738 1.45685
HEad  -9.46553 38.0432 -20.65
LeftShoulder1  1.05468 0.570477 -29.8634
LeftArm  19.9687 -11.2146 -53.3479
LeftForeArm  2.7247 -25.2114 -5.31945
LeftHand  -0.209082 2.27719 7.31414
RightShoulder  -0.231585 -4.20836 25.4038
RightArm  12.6653 -11.0231 39.0227
RightForeArm  115.943 79.1554 113.3
RightHand  -1.40283 9.0915 -11.5837
LeftUpLeg  -5.9585 12.4286 4.39448
LeftLeg  -1.54993 53.5881 -7.61536
LeftFoot  -1.39881 -0.326372 3.85201
LeftToes  2.58842e-009 -1.78069e-010 3.24654e-012
321
root  50.5131 39.3874 3.29194 177.506 19.6408 179.467
RightUpLeg  8.70781 -14.3078 -13.2406
RightLeg  2.2355 -21.6648 3.49835
RightFoot  -0.806263 -0.812305 8.69089
RightToes  5.82063e-011 0 -3.6325e-017
Spine  7.40952 -4.03002 2.66078
Spine1  12.0274 -4.35041 0.320214
HEad  -9.55773 38.7725 -20.2391
LeftShoulder1  1.03959 0.565982 -29.3049
LeftArm  14.8733 -7.79816 -52.0161
LeftForeArm  2.99455 -18.8894 -6.32066
LeftHand  -0.0921778 3.67186 5.34539
RightShoulder  -0.260417 -4.29331 25.6416
RightArm  16.5768 -9.46171 40.1597
RightForeArm  79.1802 79.7372 73.6226
RightHand  -1.30573 8.92745 -10.9131
LeftUpLeg  -6.16163 13.2428 4.91687
LeftLeg  2.38893 55.5324 -4.71642
LeftFoot  -0.863022 -0.392823 4.32344
LeftToes  2.58842e-009 -1.78069e-010 3.24654e-012
322
root  50.0727 39.1543 2.7216 177.083 15.0308 179.782
RightUpLeg  10.5464 -16.9836 -15.4406
RightLeg  4.63562 -22.5418 3.48233
RightFoot  -1.60379 -0.899817 10.5504
RightToes  5.82063e-011 0 -3.6325e-017
Spine  7.28036 -3.71583 2.5405
Spine1  12.2608 -3.88933 -0.530215
HEad  -9.39426 38.2709 -19.9717
LeftShoulder1  0.939573 0.905351 -30.0813
LeftArm  -0.194797 -6.60737 -49.5353
LeftForeArm  12.7613 -9.39443 -9.29134
LeftHand  -0.055453 4.63953 5.6298
RightShoulder  -0.251607 -4.27612 25.2195
RightArm  19.1293 -8.61856 41.5454
RightForeArm  52.0313 75.9408 43.0536
RightHand  -1.23017 8.64781 -10.5012
LeftUpLeg  -7.67642 13.213 3.82804
LeftLeg  8.43034 51.997 -0.454173
LeftFoot  -0.912414 -0.558808 6.19973
LeftToes  2.58842e-009 -1.78069e-010 3.24654e-012
323
root  49.5829 38.8846 2.13551 176.741 9.55818 178.873
RightUpLeg  11.7924 -25.3853 -19.8767
RightLeg  9.50699 -17.8346 0.783987
RightFoot  -3.08581 -1.17386 15.7644
RightToes  5.82063e-011 0 -3.6325e-017
Spine  6.69004 -3.49538 0.994987
Spine1  12.8198 -3.68169 -1.21575
HEad  -9.81146 40.0213 -20.1783
LeftShoulder1  0.897175 1.04134 -30.3721
LeftArm  -5.95759 -5.73518 -46.9022
LeftForeArm  12.5096 -3.13736 -7.75744
LeftHand  -0.0126738 5.63948 5.40347
RightShoulder  -0.295481 -4.41428 25.2557
RightArm  20.428 -8.37077 43.0159
RightForeArm  37.9335 69.8748 27.6087
RightHand  -1.40275 8.72216 -11.8669
LeftUpLeg  -9.65042 12.3207 1.04823
LeftLeg  14.2821 47.3239 3.36001
LeftFoot  -2.37444 -0.581382 7.58167
LeftToes  2.58842e-009 -1.78069e-010 3.24654e-012
324
root  48.9986 38.7033 1.48483 176.752 4.34247 177.812
RightUpLeg  10.8333 -33.4025 -24.099
RightLeg  17.6935 -11.374 -4.39555
RightFoot  -1.90013 -1.50116 17.778
RightToes  5.82063e-011 0 -3.6325e-017
Spine  5.2658 -2.92456 0.363168
Spine1  14.0964 -2.89524 -2.05926
HEad  -10.1501 39.968 -20.2521
LeftShoulder1  1.01458 0.685946 -29.928
LeftArm  -8.11548 -5.10478 -44.7914
LeftForeArm  10.454 0.598106 -6.02334
LeftHand  -0.00850944 5.84716 4.11414
RightShoulder  -0.347307 -4.57253 25.4317
RightArm  19.9492 -8.90382 44.0146
RightForeArm  30.4754 63.052 19.4046
RightHand  -1.24235 8.92884 -10.3855
LeftUpLeg  -10.2855 11.9604 -2.06788
LeftLeg  16.1453 42.9783 4.00837
LeftFoot  -3.79965 -0.553629 8.73227
LeftToes  2.58842e-009 -1.78069e-010 3.24654e-012
325
root  48.3064 38.5509 0.883997 176.125 -0.323883 177.725
RightUpLeg  8.14276 -26.7364 -24.1561
RightLeg  26.8844 -13.6402 -7.64519
RightFoot  2.297 -1.66339 14.5309
RightToes  5.82063e-011 0 -3.6325e-017
Spine  5.70596 -2.38332 1.15013
Spine1  14.3148 -2.13137 -3.01115
HEad  -9.56702 40.0159 -20.0869
LeftShoulder1  0.793353 1.32088 -30.256
LeftArm  -8.50199 -5.12023 -41.7737
LeftForeArm  7.87884 1.63811 -5.81752
LeftHand  0.0534387 7.74989 4.48177
RightShoulder  -0.378572 -4.66362 25.6445
RightArm  19.3635 -9.09401 44.4481
RightForeArm  23.7078 55.7846 14.5998
RightHand  -1.10359 8.09975 -9.7967
LeftUpLeg  -9.53839 12.1486 -4.01271
LeftLeg  17.4035 38.4848 4.27318
LeftFoot  -5.74615 -0.428103 9.4455
LeftToes  2.58842e-009 -1.78069e-010 3.24654e-012
326
root  47.696 38.4154 0.32487 175.442 -4.83775 177.197
RightUpLeg  4.28038 -17.5984 -23.1476
RightLeg  36.3061 -8.99333 -7.04773
RightFoot  6.90279 -1.12004 7.06572
RightToes  5.82063e-011 0 -3.6325e-017
Spine  6.6289 -1.65543 0.225657
Spine1  14.1757 -1.65556 -2.60527
HEad  -8.45844 38.7893 -19.79
LeftShoulder1  0.714878 1.5409 -30.3165
LeftArm  -9.27846 -4.49934 -38.8119
LeftForeArm  6.01788 0.572322 -5.46322
LeftHand  0.0103214 6.29355 4.88881
RightShoulder  -0.378099 -4.66812 25.4747
RightArm  20.1216 -8.32587 44.9001
RightForeArm  13.3297 47.2654 11.1726
RightHand  -1.47644 8.59613 -12.5789
LeftUpLeg  -7.94384 10.227 -5.99589
LeftLeg  17.5001 36.41 4.06064
LeftFoot  -7.25602 -0.310629 9.88747
LeftToes  2.58842e-009 -1.78069e-010 3.24654e-012
327
root  47.2019 38.1913 -0.196986 175.637 -10.198 176.717
RightUpLeg  0.844454 -10.7519 -21.4937
RightLeg  43.6913 0.451516 0.0857261
RightFoot  5.36473 -1.14733 8.05084
RightToes  5.82063e-011 0 -3.6325e-017
Spine  6.94812 -1.45254 -1.57216
Spine1  14.1656 -1.95774 -2.27954
HEad  -7.99642 37.9895 -18.8019
LeftShoulder1  0.617003 1.77856 -29.6729
LeftArm  -9.10692 -3.66088 -36.0791
LeftForeArm  6.28516 -2.01546 -5.81546
LeftHand  -0.0144355 5.72438 4.15828
RightShoulder  -0.418409 -4.77415 25.9984
RightArm  21.6535 -7.09541 45.378
RightForeArm  7.78505 38.9416 8.55757
RightHand  -1.40602 8.00755 -12.4628
LeftUpLeg  -7.90688 9.0376 -8.06207
LeftLeg  19.2956 32.4345 4.72399
LeftFoot  -9.04974 -0.139389 9.65757
LeftToes  2.58842e-009 -1.78069e-010 3.24654e-012
328
root  46.6977 38.1231 -0.787083 175.666 -16.2096 177.005
RightUpLeg  -2.24374 -5.54282 -18.4461
RightLeg  50.4125 2.3981 2.64516
RightFoot  4.26067 -1.04135 7.804
RightToes  5.82063e-011 0 -3.6325e-017
Spine  7.02158 -1.50825 -2.31922
Spine1  14.3082 -2.44004 -1.67731
HEad  -7.03241 36.6894 -17.1886
LeftShoulder1  0.643262 1.65904 -28.7606
LeftArm  -8.90794 -3.79198 -34.2069
LeftForeArm  7.2034 -4.16297 -6.18765
LeftHand  -0.027686 5.33666 3.54128
RightShoulder  -0.469733 -4.92054 26.2979
RightArm  22.386 -6.76602 46.1723
RightForeArm  4.91503 31.2951 6.57386
RightHand  -1.20637 7.33212 -11.3568
LeftUpLeg  -6.77646 8.06791 -9.11353
LeftLeg  19.4893 27.8004 4.23712
LeftFoot  -10.522 -0.00372412 9.39144
LeftToes  2.58842e-009 -1.78069e-010 3.24654e-012
329
root  46.1667 38.1288 -1.40166 175.992 -21.9676 177.149
RightUpLeg  -5.8201 -1.83444 -15.787
RightLeg  55.2974 0.544083 0.435796
RightFoot  2.75464 -0.839888 6.92056
RightToes  5.82063e-011 0 -3.6325e-017
Spine  6.65772 -1.4722 -3.38227
Spine1  14.4347 -2.86396 -0.707313
HEad  -6.04828 34.7791 -16.0255
LeftShoulder1  0.667372 1.54166 -27.8741
LeftArm  -9.72674 -3.73705 -33.7229
LeftForeArm  9.82165 -7.02451 -5.96974
LeftHand  -0.0241861 5.49949 2.90137
RightShoulder  -0.491062 -4.98727 26.2654
RightArm  24.1396 -6.82377 47.0047
RightForeArm  0.0789082 24.2239 5.29009
RightHand  -1.32521 9.45683 -10.6975
LeftUpLeg  -5.04353 6.13802 -10.1355
LeftLeg  18.244 24.2904 3.24551
LeftFoot  -11.3088 0.0657856 9.54908
LeftToes  2.58842e-009 -1.78069e-010 3.24654e-012
330
root  45.5681 38.2233 -2.05565 176.251 -27.9086 177.586
RightUpLeg  -9.33749 1.56784 -13.0658
RightLeg  57.2916 -0.854585 -1.84994
RightFoot  1.06472 -0.54973 5.12036
RightToes  5.82063e-011 0 -3.6325e-017
Spine  6.2744 -1.62818 -4.18495
Spine1  14.3506 -3.39588 0.636301
HEad  -5.28819 32.1588 -14.5204
LeftShoulder1  0.669837 1.5277 -27.7554
LeftArm  -9.6733 -4.26345 -33.1427
LeftForeArm  10.2792 -9.85504 -6.02648
LeftHand  -0.0328622 5.12255 3.78313
RightShoulder  -0.551959 -5.15805 26.5876
RightArm  25.7013 -7.11589 46.8627
RightForeArm  -3.9516 19.3459 5.62352
RightHand  -1.1945 8.50563 -10.2303
LeftUpLeg  -2.76851 5.02164 -10.7579
LeftLeg  16.2305 19.2704 1.99236
LeftFoot  -11.6376 0.095765 10.0635
LeftToes  2.58842e-009 -1.78069e-010 3.24654e-012
331
root  44.9459 38.3103 -2.70713 176.3 -33.5932 177.912
RightUpLeg  -12.6364 3.82034 -11.3147
RightLeg  56.4658 -0.854857 -1.82492
RightFoot  -0.541105 -0.385362 4.04719
RightToes  5.82063e-011 0 -3.6325e-017
Spine  6.75514 -1.7905 -4.7964
Spine1  13.5462 -3.7717 1.62134
HEad  -5.02092 29.3227 -13.085
LeftShoulder1  0.643768 1.57578 -27.2435
LeftArm  -9.13719 -4.69685 -33.6982
LeftForeArm  9.15669 -12.3481 -5.7379
LeftHand  -0.0351875 5.07243 4.55277
RightShoulder  -0.574748 -5.19946 27.1396
RightArm  23.2308 -8.03981 46.3462
RightForeArm  0.298541 15.9495 6.68651
RightHand  -0.802441 6.46223 -8.2014
LeftUpLeg  -0.153744 4.80251 -10.8586
LeftLeg  14.3577 14.7484 0.933009
LeftFoot  -12.0306 0.131523 9.75188
LeftToes  2.58842e-009 -1.78069e-010 3.24654e-012
332
root  44.2755 38.3316 -3.35474 176.407 -39.3783 178.309
RightUpLeg  -15.6896 4.81222 -10.1124
RightLeg  53.1109 -0.830661 -1.55762
RightFoot  -2.30931 -0.351384 4.2671
RightToes  5.82063e-011 0 -3.6325e-017
Spine  7.0619 -2.16237 -5.24043
Spine1  13.0962 -4.3184 2.55991
HEad  -5.35896 26.5328 -12.1524
LeftShoulder1  0.649526 1.54637 -27.0384
LeftArm  -7.87871 -4.78617 -34.488
LeftForeArm  7.3411 -15.2959 -5.34746
LeftHand  -0.0377017 5.03414 4.64961
RightShoulder  -0.538936 -5.09832 27.0103
RightArm  21.7385 -9.22479 46.3736
RightForeArm  2.09604 14.3472 7.21099
RightHand  -1.03613 7.17172 -9.89497
LeftUpLeg  2.30105 4.69808 -10.741
LeftLeg  12.8302 9.02091 -0.0861498
LeftFoot  -12.4678 0.182355 10.81
LeftToes  2.58842e-009 -1.78069e-010 3.24654e-012
